<?xml version="1.0" encoding="utf-8"?>
<!-- Generator: Adobe Illustrator 23.0.6, SVG Export Plug-In . SVG Version: 6.00 Build 0)  -->
<svg version="1.1" id="Calque_1" xmlns="http://www.w3.org/2000/svg" xmlns:xlink="http://www.w3.org/1999/xlink" x="0px" y="0px"
	 viewBox="0 0 258.22 258.22" style="enable-background:new 0 0 258.22 258.22;" xml:space="preserve">
<style type="text/css">
	.st0{fill:#FFFFFF;}
</style>
<g>
</g>
<g id="_x35_AezU1.tif">
	<g>
		<path class="st0" d="M178.55,158.48c0.86,0,1.6,0,2.34,0c9.65,0,19.3-0.04,28.95,0.04c1.7,0.01,2.28-0.5,2.48-2.21
			c0.9-7.72,1.96-15.41,2.95-23.12c0.59-4.59,1.16-9.19,1.77-14.1c-12.91,0-25.64,0-38.47,0c-0.06-0.79-0.14-1.3-0.14-1.8
			c0-8.37-0.05-16.74,0.04-25.11c0.02-2.01,0.32-4.06,0.81-6.01c1.53-6.07,6.09-9.92,12.75-10.23c7.94-0.37,15.91-0.3,23.87-0.41
			c2.55-0.03,2.56-0.01,2.56-2.6c0-10.12-0.02-20.23,0.02-30.35c0.01-1.61-0.16-2.5-2.19-2.57c-10.44-0.33-20.89-1.35-31.32-1.16
			c-13.13,0.23-24.97,4.44-34.28,14.25c-6.61,6.96-10.3,15.4-11.82,24.77c-0.7,4.33-0.99,8.77-1.07,13.16
			c-0.16,8.6-0.05,17.21-0.05,25.81c0,0.63,0,1.25,0,2.05c-0.83,0.04-1.51,0.1-2.19,0.1c-9.77,0.01-19.53,0-29.3,0.01
			c-2.28,0-2.29,0.01-2.29,2.34c0,11.63,0,23.25,0,34.88c0,2.27,0.01,2.27,2.36,2.27c9.65,0,19.3,0,28.95,0c0.74,0,1.48,0,2.35,0
			c0,33.26,0,66.31,0,99.57c-0.58,0.04-1.19,0.12-1.8,0.12c-40.35,0.01-80.69-0.05-121.04,0.05c-7.74,0.02-13.26-5.2-14.44-10.96
			c-0.29-1.41-0.35-2.88-0.35-4.33C0,167.07,0,91.21,0,15.34C0,7.46,3.95,2.03,10.92,0.38c1.39-0.33,2.88-0.37,4.32-0.37
			C91.17,0,167.09,0,243.01,0.01c7.95,0,13.4,4.18,14.91,11.41c0.22,1.07,0.23,2.19,0.23,3.29c0.01,76.27-0.03,152.54,0.07,228.82
			c0.01,8.13-6.47,14.76-14.54,14.7c-21.16-0.15-42.32-0.05-63.48-0.05c-0.51,0-1.02-0.06-1.65-0.1
			C178.55,224.93,178.55,191.88,178.55,158.48z"/>
	</g>
</g>
</svg>
